%FSLAX35Y35*%
%MOIN*%
G04 EasyPC Gerber Version 18.0.9 Build 3640 *
%ADD11C,0.00500*%
%ADD12C,0.00591*%
%ADD16C,0.01500*%
%ADD10C,0.02500*%
%ADD13R,0.05787X0.02165*%
%ADD14R,0.07874X0.07874X0.02362*%
%ADD15C,0.07874X0.02362*%
X0Y0D02*
D02*
D10*
X166795Y207295D02*
X166616Y207188D01*
X166455Y207056*
X166315Y206900*
X166200Y206726*
X166112Y206537*
X166054Y206336*
X166026Y206129*
X166029Y205920*
X166063Y205715*
X166128Y205516*
X166221Y205330*
X166341Y205159*
X166485Y205007*
X166650Y204880*
X166832Y204778*
X167028Y204704*
X167232Y204660*
X167441Y204648*
X167649Y204666*
X167852Y204716*
X168045Y204795*
X168224Y204902*
X168386Y205035*
X168526Y205190*
X168641Y205365*
X168728Y205554*
X168787Y205754*
X168815Y205961*
X168812Y206170*
X168778Y206376*
X168713Y206574*
X168620Y206761*
X168500Y206932*
X168356Y207083*
X168191Y207211*
X168008Y207312*
X167813Y207386*
X167609Y207430*
X167400Y207442*
X167193Y207424*
X166990Y207374*
X166795Y207295*
D02*
D11*
X138045Y138545D02*
X228045D01*
Y224795*
X138045*
Y138545*
X152238Y141014D02*
X213853D01*
X213530Y141301*
X213227Y141609*
X212944Y141937*
X212685Y142282*
X212448Y142644*
X212236Y143021*
X212049Y143411*
X211888Y143812*
X211754Y144223*
X211648Y144642*
X211569Y145067*
X211519Y145496*
X211496Y145928*
X211503Y146360*
X211538Y146791*
X211602Y147219*
X211694Y147642*
X199485Y159850*
X195512*
Y202240*
X199485*
X211496Y214251*
Y222327*
X154594*
Y214251*
X162150Y206695*
X162215Y207091*
X162308Y207480*
X162431Y207861*
X162582Y208232*
X162761Y208591*
X162966Y208935*
X163197Y209263*
X163452Y209572*
X163729Y209861*
X164027Y210129*
X164345Y210373*
X164680Y210593*
X165031Y210786*
X165395Y210953*
X165770Y211091*
X166156Y211202*
X166548Y211282*
X166945Y211333*
X167345Y211354*
X167746Y211344*
X168144Y211305*
X168539Y211235*
X168927Y211136*
X169306Y211008*
X169675Y210852*
X170031Y210668*
X170372Y210458*
X170696Y210223*
X171002Y209964*
X171287Y209683*
X171551Y209381*
X171791Y209060*
X172006Y208722*
X172194Y208369*
X172356Y208002*
X172489Y207624*
X172594Y207238*
X172669Y206844*
X172714Y206446*
X172730Y206045*
X172717Y205664*
X172676Y205285*
X172607Y204910*
X172513Y204541*
X172391Y204179*
X172244Y203827*
X172073Y203487*
X171877Y203159*
X171659Y202847*
X171418Y202551*
X171157Y202273*
X170877Y202015*
X170579Y201777*
Y159850*
X166605*
X154397Y147642*
X154488Y147220*
X154552Y146792*
X154587Y146361*
X154593Y145929*
X154571Y145498*
X154521Y145069*
X154443Y144643*
X154336Y144224*
X154202Y143813*
X154042Y143412*
X153855Y143022*
X153643Y142646*
X153406Y142284*
X153146Y141939*
X152865Y141611*
X152561Y141303*
X152238Y141014*
X161998Y142652D02*
X161872Y142664D01*
X161752Y142700*
X161640Y142760*
X161543Y142840*
X161463Y142937*
X161403Y143049*
X161367Y143170*
X161354Y143295*
Y147575*
X161367Y147700*
X161403Y147821*
X161463Y147933*
X161543Y148030*
X161640Y148110*
X161752Y148170*
X161872Y148206*
X161998Y148219*
X206593*
X206718Y148206*
X206839Y148170*
X206950Y148110*
X207048Y148030*
X207128Y147933*
X207187Y147821*
X207224Y147700*
X207236Y147575*
Y143295*
X207224Y143170*
X207187Y143049*
X207128Y142937*
X207048Y142840*
X206950Y142760*
X206839Y142700*
X206718Y142664*
X206593Y142652*
X161998*
X163262Y148856D02*
X163136Y148869D01*
X163015Y148905*
X162904Y148965*
X162806Y149044*
X162726Y149142*
X162667Y149254*
X162630Y149374*
X162618Y149500*
Y154343*
X162630Y154468*
X162667Y154589*
X162726Y154700*
X162806Y154798*
X162904Y154878*
X163015Y154937*
X163136Y154974*
X163262Y154986*
X202829*
X202954Y154974*
X203075Y154937*
X203187Y154878*
X203284Y154798*
X203364Y154700*
X203424Y154589*
X203460Y154468*
X203472Y154343*
Y149500*
X203460Y149374*
X203424Y149254*
X203364Y149142*
X203284Y149044*
X203187Y148965*
X203075Y148905*
X202954Y148869*
X202829Y148856*
X163262*
X168715Y212606D02*
X168589Y212619D01*
X168468Y212655*
X168357Y212715*
X168259Y212794*
X168179Y212892*
X168120Y213004*
X168083Y213124*
X168071Y213250*
Y219510*
X168083Y219635*
X168120Y219756*
X168179Y219868*
X168259Y219965*
X168357Y220045*
X168468Y220105*
X168589Y220141*
X168715Y220154*
X202376*
X202502Y220141*
X202622Y220105*
X202734Y220045*
X202831Y219965*
X202911Y219868*
X202971Y219756*
X203007Y219635*
X203020Y219510*
Y213250*
X203007Y213124*
X202971Y213004*
X202911Y212892*
X202831Y212794*
X202734Y212715*
X202622Y212655*
X202502Y212619*
X202376Y212606*
X168715*
X154566Y145435D02*
G36*
X154513Y145011D01*
X154431Y144592*
X154323Y144179*
X154188Y143774*
X154027Y143378*
X153841Y142994*
X153630Y142623*
X153394Y142266*
X153137Y141926*
X152857Y141602*
X152557Y141298*
X152238Y141014*
X213853*
X213534Y141298*
X213234Y141602*
X212954Y141925*
X212696Y142266*
X212461Y142622*
X212250Y142994*
X212064Y143378*
X211903Y143774*
X211768Y144179*
X211659Y144592*
X211578Y145011*
X211524Y145435*
X207236*
Y143295*
X207224Y143170*
X207187Y143049*
X207128Y142937*
X207048Y142840*
X206950Y142760*
X206839Y142700*
X206718Y142664*
X206593Y142652*
X161998*
X161872Y142664*
X161752Y142700*
X161640Y142760*
X161543Y142840*
X161463Y142937*
X161403Y143049*
X161367Y143170*
X161354Y143295*
Y145435*
X154566*
G37*
X161354D02*
G36*
Y147575D01*
X161367Y147700*
X161403Y147821*
X161463Y147933*
X161543Y148030*
X161640Y148110*
X161752Y148170*
X161872Y148206*
X161998Y148219*
X206593*
X206718Y148206*
X206839Y148170*
X206950Y148110*
X207048Y148030*
X207128Y147933*
X207187Y147821*
X207224Y147700*
X207236Y147575*
Y145435*
X211524*
X211498Y145879*
X211502Y146323*
X211536Y146767*
X211600Y147207*
X211694Y147642*
X207415Y151921*
X203472*
Y149500*
X203460Y149374*
X203424Y149254*
X203364Y149142*
X203284Y149044*
X203187Y148965*
X203075Y148905*
X202954Y148869*
X202829Y148856*
X163262*
X163136Y148869*
X163015Y148905*
X162904Y148965*
X162806Y149044*
X162726Y149142*
X162667Y149254*
X162630Y149374*
X162618Y149500*
Y151921*
X158676*
X154397Y147642*
X154491Y147207*
X154555Y146767*
X154589Y146324*
X154593Y145879*
X154566Y145435*
X161354*
G37*
X162618Y151921D02*
G36*
Y154343D01*
X162630Y154468*
X162667Y154589*
X162726Y154700*
X162806Y154798*
X162904Y154878*
X163015Y154937*
X163136Y154974*
X163262Y154986*
X202829*
X202954Y154974*
X203075Y154937*
X203187Y154878*
X203284Y154798*
X203364Y154700*
X203424Y154589*
X203460Y154468*
X203472Y154343*
Y151921*
X207415*
X199485Y159850*
X195512*
Y202240*
X199485*
X211496Y214251*
Y216380*
X203020*
Y213250*
X203007Y213124*
X202971Y213004*
X202911Y212892*
X202831Y212794*
X202734Y212715*
X202622Y212655*
X202502Y212619*
X202376Y212606*
X168715*
X168589Y212619*
X168468Y212655*
X168357Y212715*
X168259Y212794*
X168179Y212892*
X168120Y213004*
X168083Y213124*
X168071Y213250*
Y216380*
X154594*
Y214251*
X162150Y206695*
X162215Y207091*
X162308Y207480*
X162431Y207861*
X162582Y208232*
X162761Y208591*
X162966Y208935*
X163197Y209263*
X163452Y209572*
X163729Y209861*
X164027Y210129*
X164345Y210373*
X164680Y210593*
X165031Y210786*
X165395Y210953*
X165770Y211091*
X166156Y211202*
X166548Y211282*
X166945Y211333*
X167345Y211354*
X167746Y211344*
X168144Y211305*
X168539Y211235*
X168927Y211136*
X169306Y211008*
X169675Y210852*
X170031Y210668*
X170372Y210458*
X170696Y210223*
X171002Y209964*
X171287Y209683*
X171551Y209381*
X171791Y209060*
X172006Y208722*
X172194Y208369*
X172356Y208002*
X172489Y207624*
X172594Y207238*
X172669Y206844*
X172714Y206446*
X172730Y206045*
X172717Y205664*
X172676Y205285*
X172607Y204910*
X172513Y204541*
X172391Y204179*
X172244Y203827*
X172073Y203487*
X171877Y203159*
X171659Y202847*
X171418Y202551*
X171157Y202273*
X170877Y202015*
X170579Y201777*
Y159850*
X166605*
X158676Y151921*
X162618*
G37*
X168071Y216380D02*
G36*
Y219510D01*
X168083Y219635*
X168120Y219756*
X168179Y219868*
X168259Y219965*
X168357Y220045*
X168468Y220105*
X168589Y220141*
X168715Y220154*
X202376*
X202502Y220141*
X202622Y220105*
X202734Y220045*
X202831Y219965*
X202911Y219868*
X202971Y219756*
X203007Y219635*
X203020Y219510*
Y216380*
X211496*
Y222327*
X154594*
Y216380*
X168071*
G37*
X163626Y145317D02*
X164020Y145120D01*
X164217Y144726*
X164020Y144333*
X163626Y144136*
X162248*
Y146498*
X163626*
X164020Y146301*
X164217Y145907*
X164020Y145514*
X163626Y145317*
X162248*
X165398Y144136D02*
Y146498D01*
X166776*
X167169Y146301*
X167366Y145907*
X167169Y145514*
X166776Y145317*
X165398*
X166776D02*
X167366Y144136D01*
X168547D02*
Y146498D01*
X170516*
X170122Y145317D02*
X168547D01*
Y144136D02*
X170516D01*
X171697D02*
X172681Y146498D01*
X173665Y144136*
X172091Y145120D02*
X173272D01*
X174846Y144136D02*
Y146498D01*
Y145317D02*
X175437D01*
X176815Y146498*
X175437Y145317D02*
X176815Y144136D01*
X177996Y144923D02*
Y145711D01*
X178193Y146104*
X178390Y146301*
X178783Y146498*
X179177*
X179571Y146301*
X179768Y146104*
X179965Y145711*
Y144923*
X179768Y144530*
X179571Y144333*
X179177Y144136*
X178783*
X178390Y144333*
X178193Y144530*
X177996Y144923*
X181146Y146498D02*
Y144726D01*
X181343Y144333*
X181736Y144136*
X182524*
X182917Y144333*
X183114Y144726*
Y146498*
X185280Y144136D02*
Y146498D01*
X184295D02*
X186264D01*
X191972Y145317D02*
X192366Y145120D01*
X192563Y144726*
X192366Y144333*
X191972Y144136*
X190594*
Y146498*
X191972*
X192366Y146301*
X192563Y145907*
X192366Y145514*
X191972Y145317*
X190594*
X193744Y144923D02*
Y145711D01*
X193941Y146104*
X194138Y146301*
X194531Y146498*
X194925*
X195319Y146301*
X195516Y146104*
X195713Y145711*
Y144923*
X195516Y144530*
X195319Y144333*
X194925Y144136*
X194531*
X194138Y144333*
X193941Y144530*
X193744Y144923*
X196894Y144136D02*
X197878Y146498D01*
X198862Y144136*
X197287Y145120D02*
X198469D01*
X200043Y144136D02*
Y146498D01*
X201421*
X201815Y146301*
X202012Y145907*
X201815Y145514*
X201421Y145317*
X200043*
X201421D02*
X202012Y144136D01*
X203193D02*
Y146498D01*
X204374*
X204768Y146301*
X204965Y146104*
X205161Y145711*
Y144923*
X204965Y144530*
X204768Y144333*
X204374Y144136*
X203193*
D02*
D12*
X164222Y150460D02*
X165107D01*
X164665D02*
Y153117D01*
X164222D02*
X165107D01*
X167100Y150460D02*
Y153117D01*
X168208Y151789*
X169315Y153117*
Y150460*
X170644D02*
X171751Y153117D01*
X172858Y150460*
X171087Y151567D02*
X172415D01*
X175737D02*
X176402D01*
Y151346*
X176180Y150903*
X175959Y150681*
X175516Y150460*
X175073*
X174630Y150681*
X174409Y150903*
X174187Y151346*
Y152231*
X174409Y152674*
X174630Y152896*
X175073Y153117*
X175516*
X175959Y152896*
X176180Y152674*
X176402Y152231*
X178395Y150460D02*
X179281D01*
X178838D02*
Y153117D01*
X178395D02*
X179281D01*
X181274Y150460D02*
Y153117D01*
X183488Y150460*
Y153117*
X184817Y150460D02*
Y153117D01*
X187031*
X186589Y151789D02*
X184817D01*
Y150460D02*
X187031D01*
X191904D02*
X194118Y153117D01*
X191904D02*
X194118Y150460D01*
X196554D02*
Y151789D01*
X195447Y153117*
X196554Y151789D02*
X197661Y153117D01*
X198990D02*
X201205D01*
X198990Y150460*
X201205*
X169010Y215317D02*
X169305Y214726D01*
X169896Y214431*
X171077*
X171667Y214726*
X171963Y215317*
X171667Y215907*
X171077Y216203*
X169896*
X169305Y216498*
X169010Y217089*
X169305Y217679*
X169896Y217974*
X171077*
X171667Y217679*
X171963Y217089*
X173734Y214431D02*
X176096Y217974D01*
X173734*
X178754Y214726D02*
X179344Y214431D01*
X179935*
X180526Y214726*
X180821Y215317*
Y217089*
X180526Y217679*
X179935Y217974*
X179344*
X178754Y217679*
X178459Y217089*
Y215317*
X178754Y214726*
X180526Y217679*
X183183Y214431D02*
Y217974D01*
X186136*
X185545Y216203D02*
X183183D01*
X187907Y217974D02*
Y214431D01*
X190860*
X192927Y214726D02*
X193518Y214431D01*
X194108*
X194699Y214726*
X194994Y215317*
Y217089*
X194699Y217679*
X194108Y217974*
X193518*
X192927Y217679*
X192632Y217089*
Y215317*
X192927Y214726*
X194699Y217679*
X197947Y214431D02*
X199128D01*
X198537D02*
Y217974D01*
X197947Y217384*
D02*
D13*
X165073Y163545D03*
Y168545D03*
Y173545D03*
Y178545D03*
Y183545D03*
Y188545D03*
Y193545D03*
Y198545D03*
X201018Y163545D03*
Y168545D03*
Y173545D03*
Y178545D03*
Y183545D03*
Y188545D03*
Y193545D03*
Y198545D03*
D02*
D14*
X148045Y216045D03*
X218045D03*
D02*
D15*
X148045Y146045D03*
Y156045D03*
Y166045D03*
Y176045D03*
Y186045D03*
Y196045D03*
Y206045D03*
X218045Y146045D03*
Y156045D03*
Y166045D03*
Y176045D03*
Y186045D03*
Y196045D03*
Y206045D03*
D02*
D16*
X165073Y163545D02*
Y163073D01*
X149411Y147411*
X165073Y168545D02*
X160545D01*
X149411Y157411*
X165073Y173545D02*
X155545D01*
X149411Y167411*
X165073Y178545D02*
X150545D01*
X149411Y177411*
X165073Y183545D02*
X150545D01*
X149411Y184680*
X165073Y188545D02*
X155545D01*
X149411Y194680*
X165073Y193545D02*
X160545D01*
X149411Y204680*
X165073Y198545D02*
Y199018D01*
X149411Y214680*
X201018Y163545D02*
Y163073D01*
X216680Y147411*
X201018Y168545D02*
X205545D01*
X216680Y157411*
X201018Y173545D02*
X210545D01*
X216680Y167411*
X201018Y178545D02*
X215545D01*
X216680Y177411*
X201018Y183545D02*
X215545D01*
X216680Y184680*
X201018Y188545D02*
X210545D01*
X216680Y194680*
X201018Y193545D02*
X205545D01*
X216680Y204680*
X201018Y198545D02*
Y199018D01*
X216680Y214680*
X0Y0D02*
M02*
