%FSLAX35Y35*%
%MOIN*%
G04 EasyPC Gerber Version 18.0.9 Build 3640 *
%ADD11C,0.00500*%
%ADD12C,0.00591*%
%ADD16C,0.01500*%
%ADD10C,0.02500*%
%ADD13R,0.05787X0.02165*%
%ADD14R,0.07874X0.07874X0.02362*%
%ADD15C,0.07874X0.02362*%
X0Y0D02*
D02*
D10*
X29000Y69500D02*
X28821Y69393D01*
X28659Y69260*
X28520Y69105*
X28405Y68931*
X28317Y68741*
X28258Y68541*
X28230Y68334*
X28233Y68125*
X28268Y67919*
X28332Y67721*
X28426Y67534*
X28546Y67363*
X28690Y67212*
X28855Y67084*
X29037Y66982*
X29233Y66909*
X29437Y66865*
X29646Y66852*
X29854Y66871*
X30057Y66920*
X30250Y67000*
X30429Y67107*
X30591Y67240*
X30730Y67395*
X30845Y67569*
X30933Y67759*
X30992Y67959*
X31020Y68166*
X31017Y68375*
X30982Y68581*
X30918Y68779*
X30824Y68966*
X30704Y69137*
X30560Y69287*
X30395Y69415*
X30213Y69517*
X30018Y69591*
X29813Y69634*
X29605Y69647*
X29397Y69628*
X29194Y69579*
X29000Y69500*
D02*
D11*
X250Y750D02*
X90250D01*
Y87000*
X250*
Y750*
X14443Y3219D02*
X76057D01*
X75735Y3506*
X75431Y3814*
X75149Y4142*
X74889Y4487*
X74653Y4849*
X74441Y5226*
X74254Y5615*
X74093Y6017*
X73959Y6428*
X73852Y6846*
X73774Y7272*
X73723Y7701*
X73701Y8133*
X73708Y8565*
X73743Y8996*
X73806Y9423*
X73898Y9847*
X61690Y22055*
X57717*
Y64445*
X61690*
X73701Y76456*
Y84531*
X16799*
Y76456*
X24355Y68900*
X24419Y69295*
X24513Y69685*
X24636Y70066*
X24787Y70437*
X24966Y70796*
X25171Y71140*
X25402Y71467*
X25656Y71777*
X25933Y72066*
X26232Y72333*
X26550Y72578*
X26885Y72797*
X27235Y72991*
X27600Y73157*
X27975Y73296*
X28360Y73406*
X28753Y73487*
X29150Y73538*
X29550Y73559*
X29950Y73549*
X30349Y73509*
X30743Y73440*
X31131Y73341*
X31511Y73213*
X31880Y73056*
X32236Y72872*
X32577Y72663*
X32901Y72428*
X33207Y72169*
X33492Y71887*
X33756Y71585*
X33995Y71265*
X34210Y70926*
X34399Y70573*
X34560Y70207*
X34694Y69829*
X34798Y69443*
X34874Y69049*
X34919Y68651*
X34935Y68250*
X34921Y67869*
X34880Y67490*
X34812Y67115*
X34717Y66745*
X34596Y66384*
X34449Y66032*
X34278Y65691*
X34082Y65364*
X33863Y65052*
X33623Y64756*
X33362Y64478*
X33081Y64220*
X32783Y63981*
Y22055*
X28810*
X16602Y9847*
X16693Y9424*
X16756Y8997*
X16791Y8566*
X16798Y8134*
X16776Y7702*
X16726Y7273*
X16647Y6848*
X16541Y6429*
X16407Y6018*
X16246Y5617*
X16060Y5227*
X15848Y4850*
X15611Y4489*
X15351Y4143*
X15069Y3816*
X14766Y3507*
X14443Y3219*
X24203Y4856D02*
X24077Y4869D01*
X23956Y4905*
X23845Y4965*
X23747Y5044*
X23667Y5142*
X23608Y5254*
X23571Y5374*
X23559Y5500*
Y9780*
X23571Y9905*
X23608Y10026*
X23667Y10137*
X23747Y10235*
X23845Y10315*
X23956Y10374*
X24077Y10411*
X24203Y10423*
X68797*
X68923Y10411*
X69044Y10374*
X69155Y10315*
X69253Y10235*
X69333Y10137*
X69392Y10026*
X69429Y9905*
X69441Y9780*
Y5500*
X69429Y5374*
X69392Y5254*
X69333Y5142*
X69253Y5044*
X69155Y4965*
X69044Y4905*
X68923Y4869*
X68797Y4856*
X24203*
X25467Y11061D02*
X25341Y11073D01*
X25220Y11110*
X25109Y11169*
X25011Y11249*
X24931Y11347*
X24872Y11458*
X24835Y11579*
X24823Y11705*
Y16547*
X24835Y16673*
X24872Y16794*
X24931Y16905*
X25011Y17003*
X25109Y17083*
X25220Y17142*
X25341Y17179*
X25467Y17191*
X65033*
X65159Y17179*
X65280Y17142*
X65391Y17083*
X65489Y17003*
X65569Y16905*
X65628Y16794*
X65665Y16673*
X65677Y16547*
Y11705*
X65665Y11579*
X65628Y11458*
X65569Y11347*
X65489Y11249*
X65391Y11169*
X65280Y11110*
X65159Y11073*
X65033Y11061*
X25467*
X30919Y74811D02*
X30794Y74823D01*
X30673Y74860*
X30561Y74919*
X30464Y74999*
X30384Y75097*
X30324Y75208*
X30288Y75329*
X30276Y75455*
Y81715*
X30288Y81840*
X30324Y81961*
X30384Y82072*
X30464Y82170*
X30561Y82250*
X30673Y82309*
X30794Y82346*
X30919Y82358*
X64581*
X64706Y82346*
X64827Y82309*
X64939Y82250*
X65036Y82170*
X65116Y82072*
X65176Y81961*
X65212Y81840*
X65224Y81715*
Y75455*
X65212Y75329*
X65176Y75208*
X65116Y75097*
X65036Y74999*
X64939Y74919*
X64827Y74860*
X64706Y74823*
X64581Y74811*
X30919*
X16771Y7640D02*
G36*
X16717Y7216D01*
X16636Y6797*
X16528Y6384*
X16393Y5979*
X16232Y5583*
X16045Y5199*
X15834Y4828*
X15599Y4471*
X15341Y4130*
X15062Y3807*
X14762Y3503*
X14443Y3219*
X76057*
X75739Y3502*
X75439Y3807*
X75159Y4130*
X74901Y4470*
X74666Y4827*
X74455Y5198*
X74269Y5583*
X74107Y5978*
X73972Y6383*
X73864Y6796*
X73783Y7216*
X73729Y7640*
X69441*
Y5500*
X69429Y5374*
X69392Y5254*
X69333Y5142*
X69253Y5044*
X69155Y4965*
X69044Y4905*
X68923Y4869*
X68797Y4856*
X24203*
X24077Y4869*
X23956Y4905*
X23845Y4965*
X23747Y5044*
X23667Y5142*
X23608Y5254*
X23571Y5374*
X23559Y5500*
Y7640*
X16771*
G37*
X23559D02*
G36*
Y9780D01*
X23571Y9905*
X23608Y10026*
X23667Y10137*
X23747Y10235*
X23845Y10315*
X23956Y10374*
X24077Y10411*
X24203Y10423*
X68797*
X68923Y10411*
X69044Y10374*
X69155Y10315*
X69253Y10235*
X69333Y10137*
X69392Y10026*
X69429Y9905*
X69441Y9780*
Y7640*
X73729*
X73703Y8083*
X73707Y8528*
X73741Y8971*
X73804Y9411*
X73898Y9847*
X69619Y14126*
X65677*
Y11705*
X65665Y11579*
X65628Y11458*
X65569Y11347*
X65489Y11249*
X65391Y11169*
X65280Y11110*
X65159Y11073*
X65033Y11061*
X25467*
X25341Y11073*
X25220Y11110*
X25109Y11169*
X25011Y11249*
X24931Y11347*
X24872Y11458*
X24835Y11579*
X24823Y11705*
Y14126*
X20881*
X16602Y9847*
X16695Y9412*
X16759Y8972*
X16793Y8529*
X16797Y8084*
X16771Y7640*
X23559*
G37*
X24823Y14126D02*
G36*
Y16547D01*
X24835Y16673*
X24872Y16794*
X24931Y16905*
X25011Y17003*
X25109Y17083*
X25220Y17142*
X25341Y17179*
X25467Y17191*
X65033*
X65159Y17179*
X65280Y17142*
X65391Y17083*
X65489Y17003*
X65569Y16905*
X65628Y16794*
X65665Y16673*
X65677Y16547*
Y14126*
X69619*
X61690Y22055*
X57717*
Y64445*
X61690*
X73701Y76456*
Y78585*
X65224*
Y75455*
X65212Y75329*
X65176Y75208*
X65116Y75097*
X65036Y74999*
X64939Y74919*
X64827Y74860*
X64706Y74823*
X64581Y74811*
X30919*
X30794Y74823*
X30673Y74860*
X30561Y74919*
X30464Y74999*
X30384Y75097*
X30324Y75208*
X30288Y75329*
X30276Y75455*
Y78585*
X16799*
Y76456*
X24355Y68900*
X24419Y69295*
X24513Y69685*
X24636Y70066*
X24787Y70437*
X24966Y70796*
X25171Y71140*
X25402Y71467*
X25656Y71777*
X25933Y72066*
X26232Y72333*
X26550Y72578*
X26885Y72797*
X27235Y72991*
X27600Y73157*
X27975Y73296*
X28360Y73406*
X28753Y73487*
X29150Y73538*
X29550Y73559*
X29950Y73549*
X30349Y73509*
X30743Y73440*
X31131Y73341*
X31511Y73213*
X31880Y73056*
X32236Y72872*
X32577Y72663*
X32901Y72428*
X33207Y72169*
X33492Y71887*
X33756Y71585*
X33995Y71265*
X34210Y70926*
X34399Y70573*
X34560Y70207*
X34694Y69829*
X34798Y69443*
X34874Y69049*
X34919Y68651*
X34935Y68250*
X34921Y67869*
X34880Y67490*
X34812Y67115*
X34717Y66745*
X34596Y66384*
X34449Y66032*
X34278Y65691*
X34082Y65364*
X33863Y65052*
X33623Y64756*
X33362Y64478*
X33081Y64220*
X32783Y63981*
Y22055*
X28810*
X20881Y14126*
X24823*
G37*
X30276Y78585D02*
G36*
Y81715D01*
X30288Y81840*
X30324Y81961*
X30384Y82072*
X30464Y82170*
X30561Y82250*
X30673Y82309*
X30794Y82346*
X30919Y82358*
X64581*
X64706Y82346*
X64827Y82309*
X64939Y82250*
X65036Y82170*
X65116Y82072*
X65176Y81961*
X65212Y81840*
X65224Y81715*
Y78585*
X73701*
Y84531*
X16799*
Y78585*
X30276*
G37*
X25831Y7522D02*
X26224Y7325D01*
X26421Y6931*
X26224Y6537*
X25831Y6341*
X24453*
Y8703*
X25831*
X26224Y8506*
X26421Y8112*
X26224Y7719*
X25831Y7522*
X24453*
X27602Y6341D02*
Y8703D01*
X28980*
X29374Y8506*
X29571Y8112*
X29374Y7719*
X28980Y7522*
X27602*
X28980D02*
X29571Y6341D01*
X30752D02*
Y8703D01*
X32720*
X32327Y7522D02*
X30752D01*
Y6341D02*
X32720D01*
X33902D02*
X34886Y8703D01*
X35870Y6341*
X34295Y7325D02*
X35476D01*
X37051Y6341D02*
Y8703D01*
Y7522D02*
X37642D01*
X39020Y8703*
X37642Y7522D02*
X39020Y6341D01*
X40201Y7128D02*
Y7915D01*
X40398Y8309*
X40594Y8506*
X40988Y8703*
X41382*
X41776Y8506*
X41972Y8309*
X42169Y7915*
Y7128*
X41972Y6734*
X41776Y6537*
X41382Y6341*
X40988*
X40594Y6537*
X40398Y6734*
X40201Y7128*
X43350Y8703D02*
Y6931D01*
X43547Y6537*
X43941Y6341*
X44728*
X45122Y6537*
X45319Y6931*
Y8703*
X47484Y6341D02*
Y8703D01*
X46500D02*
X48469D01*
X54177Y7522D02*
X54571Y7325D01*
X54768Y6931*
X54571Y6537*
X54177Y6341*
X52799*
Y8703*
X54177*
X54571Y8506*
X54768Y8112*
X54571Y7719*
X54177Y7522*
X52799*
X55949Y7128D02*
Y7915D01*
X56146Y8309*
X56343Y8506*
X56736Y8703*
X57130*
X57524Y8506*
X57720Y8309*
X57917Y7915*
Y7128*
X57720Y6734*
X57524Y6537*
X57130Y6341*
X56736*
X56343Y6537*
X56146Y6734*
X55949Y7128*
X59098Y6341D02*
X60083Y8703D01*
X61067Y6341*
X59492Y7325D02*
X60673D01*
X62248Y6341D02*
Y8703D01*
X63626*
X64020Y8506*
X64217Y8112*
X64020Y7719*
X63626Y7522*
X62248*
X63626D02*
X64217Y6341D01*
X65398D02*
Y8703D01*
X66579*
X66972Y8506*
X67169Y8309*
X67366Y7915*
Y7128*
X67169Y6734*
X66972Y6537*
X66579Y6341*
X65398*
D02*
D12*
X26426Y12665D02*
X27312D01*
X26869D02*
Y15322D01*
X26426D02*
X27312D01*
X29305Y12665D02*
Y15322D01*
X30413Y13993*
X31520Y15322*
Y12665*
X32848D02*
X33956Y15322D01*
X35063Y12665*
X33291Y13772D02*
X34620D01*
X37942D02*
X38606D01*
Y13550*
X38385Y13107*
X38163Y12886*
X37720Y12665*
X37278*
X36835Y12886*
X36613Y13107*
X36392Y13550*
Y14436*
X36613Y14879*
X36835Y15100*
X37278Y15322*
X37720*
X38163Y15100*
X38385Y14879*
X38606Y14436*
X40600Y12665D02*
X41485D01*
X41043D02*
Y15322D01*
X40600D02*
X41485D01*
X43478Y12665D02*
Y15322D01*
X45693Y12665*
Y15322*
X47022Y12665D02*
Y15322D01*
X49236*
X48793Y13993D02*
X47022D01*
Y12665D02*
X49236D01*
X54108D02*
X56323Y15322D01*
X54108D02*
X56323Y12665D01*
X58759D02*
Y13993D01*
X57652Y15322*
X58759Y13993D02*
X59866Y15322D01*
X61195D02*
X63409D01*
X61195Y12665*
X63409*
X31215Y77522D02*
X31510Y76931D01*
X32100Y76636*
X33281*
X33872Y76931*
X34167Y77522*
X33872Y78112*
X33281Y78407*
X32100*
X31510Y78703*
X31215Y79293*
X31510Y79884*
X32100Y80179*
X33281*
X33872Y79884*
X34167Y79293*
X35939Y76636D02*
X38301Y80179D01*
X35939*
X40959Y76931D02*
X41549Y76636D01*
X42140*
X42730Y76931*
X43026Y77522*
Y79293*
X42730Y79884*
X42140Y80179*
X41549*
X40959Y79884*
X40663Y79293*
Y77522*
X40959Y76931*
X42730Y79884*
X45388Y76636D02*
Y80179D01*
X48341*
X47750Y78407D02*
X45388D01*
X50112Y80179D02*
Y76636D01*
X53065*
X55132Y76931D02*
X55722Y76636D01*
X56313*
X56904Y76931*
X57199Y77522*
Y79293*
X56904Y79884*
X56313Y80179*
X55722*
X55132Y79884*
X54837Y79293*
Y77522*
X55132Y76931*
X56904Y79884*
X60152Y76636D02*
X61333D01*
X60742D02*
Y80179D01*
X60152Y79589*
D02*
D13*
X27278Y25750D03*
Y30750D03*
Y35750D03*
Y40750D03*
Y45750D03*
Y50750D03*
Y55750D03*
Y60750D03*
X63222Y25750D03*
Y30750D03*
Y35750D03*
Y40750D03*
Y45750D03*
Y50750D03*
Y55750D03*
Y60750D03*
D02*
D14*
X10250Y78250D03*
X80250D03*
D02*
D15*
X10250Y8250D03*
Y18250D03*
Y28250D03*
Y38250D03*
Y48250D03*
Y58250D03*
Y68250D03*
X80250Y8250D03*
Y18250D03*
Y28250D03*
Y38250D03*
Y48250D03*
Y58250D03*
Y68250D03*
D02*
D16*
X27278Y25750D02*
Y25278D01*
X11615Y9615*
X27278Y30750D02*
X22750D01*
X11615Y19615*
X27278Y35750D02*
X17750D01*
X11615Y29615*
X27278Y40750D02*
X12750D01*
X11615Y39615*
X27278Y45750D02*
X12750D01*
X11615Y46885*
X27278Y50750D02*
X17750D01*
X11615Y56885*
X27278Y55750D02*
X22750D01*
X11615Y66885*
X27278Y60750D02*
Y61222D01*
X11615Y76885*
X63222Y25750D02*
Y25278D01*
X78885Y9615*
X63222Y30750D02*
X67750D01*
X78885Y19615*
X63222Y35750D02*
X72750D01*
X78885Y29615*
X63222Y40750D02*
X77750D01*
X78885Y39615*
X63222Y45750D02*
X77750D01*
X78885Y46885*
X63222Y50750D02*
X72750D01*
X78885Y56885*
X63222Y55750D02*
X67750D01*
X78885Y66885*
X63222Y60750D02*
Y61222D01*
X78885Y76885*
X0Y0D02*
M02*
