%
M48
M72
T01C0.04000
T02C0.04724
T03C0.05118
T04C0.12598
%
T01
X203500Y78500
X213500Y78500
X213500Y103500
X203500Y103500
X228500Y158500
X228500Y168500
T02
X61500Y58500
X113500Y58500
X113500Y131500
X61500Y131500
X173500Y153500
X173500Y163500
X173500Y173500
X173500Y183500
X173500Y193500
X173500Y203500
X173500Y213500
X173500Y223500
X173500Y233500
X173500Y243500
X173500Y253500
X173500Y263500
X173500Y273500
X173500Y283500
X173500Y293500
X173500Y303500
X273500Y243500
X298500Y243500
X313500Y243500
X313500Y233500
X313500Y253500
X313500Y263500
X313500Y273500
X313500Y283500
X313500Y293500
X318500Y203500
X328500Y203500
X338500Y203500
X348500Y203500
X358500Y203500
X368500Y203500
X378500Y203500
X308500Y203500
X298500Y203500
X288500Y203500
X278500Y203500
X268500Y203500
X268500Y143500
X278500Y143500
X288500Y143500
X298500Y143500
X308500Y143500
X318500Y143500
X328500Y143500
X338500Y143500
X348500Y143500
X358500Y143500
X368500Y143500
X378500Y143500
X328500Y128500
X308500Y128500
X278500Y88500
X278500Y78500
X278500Y68500
X278500Y58500
X278500Y48500
X278500Y38500
X278500Y28500
X278500Y18500
T03
X23500Y103815
X23500Y123500
T04
X33500Y78500
X253500Y288500
X353500Y108500
M30
