G75*
%MOIN*%
%OFA0B0*%
%FSLAX25Y25*%
%IPPOS*%
%LPD*%
%AMOC8*
5,1,8,0,0,1.08239X$1,22.5*
%
%ADD10C,0.07400*%
%ADD11C,0.08600*%
%ADD12R,0.08600X0.08600*%
%ADD13R,0.08000X0.08000*%
%ADD14C,0.08000*%
%ADD15C,0.01600*%
D10*
X0203500Y0078500D03*
X0213500Y0078500D03*
X0213500Y0103500D03*
X0203500Y0103500D03*
X0228500Y0158500D03*
X0228500Y0168500D03*
D11*
X0061500Y0058500D03*
X0113500Y0058500D03*
X0113500Y0131500D03*
X0061500Y0131500D03*
X0173500Y0153500D03*
X0173500Y0163500D03*
X0173500Y0173500D03*
X0173500Y0183500D03*
X0173500Y0193500D03*
X0173500Y0203500D03*
X0173500Y0213500D03*
X0173500Y0223500D03*
X0173500Y0233500D03*
X0173500Y0243500D03*
X0173500Y0253500D03*
X0173500Y0263500D03*
X0173500Y0273500D03*
X0173500Y0283500D03*
X0173500Y0293500D03*
X0173500Y0303500D03*
X0273500Y0243500D03*
X0298500Y0243500D03*
X0313500Y0243500D03*
X0313500Y0233500D03*
X0313500Y0253500D03*
X0313500Y0263500D03*
X0313500Y0273500D03*
X0313500Y0283500D03*
X0313500Y0293500D03*
X0318500Y0203500D03*
X0328500Y0203500D03*
X0338500Y0203500D03*
X0348500Y0203500D03*
X0358500Y0203500D03*
X0368500Y0203500D03*
X0378500Y0203500D03*
X0308500Y0203500D03*
X0298500Y0203500D03*
X0288500Y0203500D03*
X0278500Y0203500D03*
X0268500Y0203500D03*
X0268500Y0143500D03*
X0278500Y0143500D03*
X0288500Y0143500D03*
X0298500Y0143500D03*
X0308500Y0143500D03*
X0318500Y0143500D03*
X0328500Y0143500D03*
X0338500Y0143500D03*
X0348500Y0143500D03*
X0358500Y0143500D03*
X0368500Y0143500D03*
X0328500Y0128500D03*
X0308500Y0128500D03*
X0278500Y0088500D03*
X0278500Y0078500D03*
X0278500Y0068500D03*
X0278500Y0058500D03*
X0278500Y0048500D03*
X0278500Y0038500D03*
X0278500Y0028500D03*
X0278500Y0018500D03*
D12*
X0378500Y0143500D03*
D13*
X0023500Y0123500D03*
D14*
X0023500Y0103815D03*
D15*
X0273500Y0243500D02*
X0298500Y0243500D01*
X0308500Y0128500D02*
X0328500Y0128500D01*
M02*
