G75*
%MOIN*%
%OFA0B0*%
%FSLAX25Y25*%
%IPPOS*%
%LPD*%
%AMOC8*
5,1,8,0,0,1.08239X$1,22.5*
%
%ADD10C,0.00000*%
%ADD11C,0.00800*%
%ADD12C,0.00500*%
%ADD13C,0.00400*%
%ADD14C,0.00100*%
D10*
X0003500Y0003500D02*
X0003500Y0313461D01*
X0397201Y0313461D01*
X0397201Y0058500D01*
X0383500Y0043500D01*
X0163500Y0043500D01*
X0148500Y0028500D01*
X0148500Y0013500D01*
X0138500Y0003500D01*
X0003500Y0003500D01*
X0042201Y0108500D02*
X0042203Y0108658D01*
X0042209Y0108816D01*
X0042219Y0108974D01*
X0042233Y0109132D01*
X0042251Y0109289D01*
X0042272Y0109446D01*
X0042298Y0109602D01*
X0042328Y0109758D01*
X0042361Y0109913D01*
X0042399Y0110066D01*
X0042440Y0110219D01*
X0042485Y0110371D01*
X0042534Y0110522D01*
X0042587Y0110671D01*
X0042643Y0110819D01*
X0042703Y0110965D01*
X0042767Y0111110D01*
X0042835Y0111253D01*
X0042906Y0111395D01*
X0042980Y0111535D01*
X0043058Y0111672D01*
X0043140Y0111808D01*
X0043224Y0111942D01*
X0043313Y0112073D01*
X0043404Y0112202D01*
X0043499Y0112329D01*
X0043596Y0112454D01*
X0043697Y0112576D01*
X0043801Y0112695D01*
X0043908Y0112812D01*
X0044018Y0112926D01*
X0044131Y0113037D01*
X0044246Y0113146D01*
X0044364Y0113251D01*
X0044485Y0113353D01*
X0044608Y0113453D01*
X0044734Y0113549D01*
X0044862Y0113642D01*
X0044992Y0113732D01*
X0045125Y0113818D01*
X0045260Y0113902D01*
X0045396Y0113981D01*
X0045535Y0114058D01*
X0045676Y0114130D01*
X0045818Y0114200D01*
X0045962Y0114265D01*
X0046108Y0114327D01*
X0046255Y0114385D01*
X0046404Y0114440D01*
X0046554Y0114491D01*
X0046705Y0114538D01*
X0046857Y0114581D01*
X0047010Y0114620D01*
X0047165Y0114656D01*
X0047320Y0114687D01*
X0047476Y0114715D01*
X0047632Y0114739D01*
X0047789Y0114759D01*
X0047947Y0114775D01*
X0048104Y0114787D01*
X0048263Y0114795D01*
X0048421Y0114799D01*
X0048579Y0114799D01*
X0048737Y0114795D01*
X0048896Y0114787D01*
X0049053Y0114775D01*
X0049211Y0114759D01*
X0049368Y0114739D01*
X0049524Y0114715D01*
X0049680Y0114687D01*
X0049835Y0114656D01*
X0049990Y0114620D01*
X0050143Y0114581D01*
X0050295Y0114538D01*
X0050446Y0114491D01*
X0050596Y0114440D01*
X0050745Y0114385D01*
X0050892Y0114327D01*
X0051038Y0114265D01*
X0051182Y0114200D01*
X0051324Y0114130D01*
X0051465Y0114058D01*
X0051604Y0113981D01*
X0051740Y0113902D01*
X0051875Y0113818D01*
X0052008Y0113732D01*
X0052138Y0113642D01*
X0052266Y0113549D01*
X0052392Y0113453D01*
X0052515Y0113353D01*
X0052636Y0113251D01*
X0052754Y0113146D01*
X0052869Y0113037D01*
X0052982Y0112926D01*
X0053092Y0112812D01*
X0053199Y0112695D01*
X0053303Y0112576D01*
X0053404Y0112454D01*
X0053501Y0112329D01*
X0053596Y0112202D01*
X0053687Y0112073D01*
X0053776Y0111942D01*
X0053860Y0111808D01*
X0053942Y0111672D01*
X0054020Y0111535D01*
X0054094Y0111395D01*
X0054165Y0111253D01*
X0054233Y0111110D01*
X0054297Y0110965D01*
X0054357Y0110819D01*
X0054413Y0110671D01*
X0054466Y0110522D01*
X0054515Y0110371D01*
X0054560Y0110219D01*
X0054601Y0110066D01*
X0054639Y0109913D01*
X0054672Y0109758D01*
X0054702Y0109602D01*
X0054728Y0109446D01*
X0054749Y0109289D01*
X0054767Y0109132D01*
X0054781Y0108974D01*
X0054791Y0108816D01*
X0054797Y0108658D01*
X0054799Y0108500D01*
X0054797Y0108342D01*
X0054791Y0108184D01*
X0054781Y0108026D01*
X0054767Y0107868D01*
X0054749Y0107711D01*
X0054728Y0107554D01*
X0054702Y0107398D01*
X0054672Y0107242D01*
X0054639Y0107087D01*
X0054601Y0106934D01*
X0054560Y0106781D01*
X0054515Y0106629D01*
X0054466Y0106478D01*
X0054413Y0106329D01*
X0054357Y0106181D01*
X0054297Y0106035D01*
X0054233Y0105890D01*
X0054165Y0105747D01*
X0054094Y0105605D01*
X0054020Y0105465D01*
X0053942Y0105328D01*
X0053860Y0105192D01*
X0053776Y0105058D01*
X0053687Y0104927D01*
X0053596Y0104798D01*
X0053501Y0104671D01*
X0053404Y0104546D01*
X0053303Y0104424D01*
X0053199Y0104305D01*
X0053092Y0104188D01*
X0052982Y0104074D01*
X0052869Y0103963D01*
X0052754Y0103854D01*
X0052636Y0103749D01*
X0052515Y0103647D01*
X0052392Y0103547D01*
X0052266Y0103451D01*
X0052138Y0103358D01*
X0052008Y0103268D01*
X0051875Y0103182D01*
X0051740Y0103098D01*
X0051604Y0103019D01*
X0051465Y0102942D01*
X0051324Y0102870D01*
X0051182Y0102800D01*
X0051038Y0102735D01*
X0050892Y0102673D01*
X0050745Y0102615D01*
X0050596Y0102560D01*
X0050446Y0102509D01*
X0050295Y0102462D01*
X0050143Y0102419D01*
X0049990Y0102380D01*
X0049835Y0102344D01*
X0049680Y0102313D01*
X0049524Y0102285D01*
X0049368Y0102261D01*
X0049211Y0102241D01*
X0049053Y0102225D01*
X0048896Y0102213D01*
X0048737Y0102205D01*
X0048579Y0102201D01*
X0048421Y0102201D01*
X0048263Y0102205D01*
X0048104Y0102213D01*
X0047947Y0102225D01*
X0047789Y0102241D01*
X0047632Y0102261D01*
X0047476Y0102285D01*
X0047320Y0102313D01*
X0047165Y0102344D01*
X0047010Y0102380D01*
X0046857Y0102419D01*
X0046705Y0102462D01*
X0046554Y0102509D01*
X0046404Y0102560D01*
X0046255Y0102615D01*
X0046108Y0102673D01*
X0045962Y0102735D01*
X0045818Y0102800D01*
X0045676Y0102870D01*
X0045535Y0102942D01*
X0045396Y0103019D01*
X0045260Y0103098D01*
X0045125Y0103182D01*
X0044992Y0103268D01*
X0044862Y0103358D01*
X0044734Y0103451D01*
X0044608Y0103547D01*
X0044485Y0103647D01*
X0044364Y0103749D01*
X0044246Y0103854D01*
X0044131Y0103963D01*
X0044018Y0104074D01*
X0043908Y0104188D01*
X0043801Y0104305D01*
X0043697Y0104424D01*
X0043596Y0104546D01*
X0043499Y0104671D01*
X0043404Y0104798D01*
X0043313Y0104927D01*
X0043224Y0105058D01*
X0043140Y0105192D01*
X0043058Y0105328D01*
X0042980Y0105465D01*
X0042906Y0105605D01*
X0042835Y0105747D01*
X0042767Y0105890D01*
X0042703Y0106035D01*
X0042643Y0106181D01*
X0042587Y0106329D01*
X0042534Y0106478D01*
X0042485Y0106629D01*
X0042440Y0106781D01*
X0042399Y0106934D01*
X0042361Y0107087D01*
X0042328Y0107242D01*
X0042298Y0107398D01*
X0042272Y0107554D01*
X0042251Y0107711D01*
X0042233Y0107868D01*
X0042219Y0108026D01*
X0042209Y0108184D01*
X0042203Y0108342D01*
X0042201Y0108500D01*
X0142201Y0288500D02*
X0142203Y0288658D01*
X0142209Y0288816D01*
X0142219Y0288974D01*
X0142233Y0289132D01*
X0142251Y0289289D01*
X0142272Y0289446D01*
X0142298Y0289602D01*
X0142328Y0289758D01*
X0142361Y0289913D01*
X0142399Y0290066D01*
X0142440Y0290219D01*
X0142485Y0290371D01*
X0142534Y0290522D01*
X0142587Y0290671D01*
X0142643Y0290819D01*
X0142703Y0290965D01*
X0142767Y0291110D01*
X0142835Y0291253D01*
X0142906Y0291395D01*
X0142980Y0291535D01*
X0143058Y0291672D01*
X0143140Y0291808D01*
X0143224Y0291942D01*
X0143313Y0292073D01*
X0143404Y0292202D01*
X0143499Y0292329D01*
X0143596Y0292454D01*
X0143697Y0292576D01*
X0143801Y0292695D01*
X0143908Y0292812D01*
X0144018Y0292926D01*
X0144131Y0293037D01*
X0144246Y0293146D01*
X0144364Y0293251D01*
X0144485Y0293353D01*
X0144608Y0293453D01*
X0144734Y0293549D01*
X0144862Y0293642D01*
X0144992Y0293732D01*
X0145125Y0293818D01*
X0145260Y0293902D01*
X0145396Y0293981D01*
X0145535Y0294058D01*
X0145676Y0294130D01*
X0145818Y0294200D01*
X0145962Y0294265D01*
X0146108Y0294327D01*
X0146255Y0294385D01*
X0146404Y0294440D01*
X0146554Y0294491D01*
X0146705Y0294538D01*
X0146857Y0294581D01*
X0147010Y0294620D01*
X0147165Y0294656D01*
X0147320Y0294687D01*
X0147476Y0294715D01*
X0147632Y0294739D01*
X0147789Y0294759D01*
X0147947Y0294775D01*
X0148104Y0294787D01*
X0148263Y0294795D01*
X0148421Y0294799D01*
X0148579Y0294799D01*
X0148737Y0294795D01*
X0148896Y0294787D01*
X0149053Y0294775D01*
X0149211Y0294759D01*
X0149368Y0294739D01*
X0149524Y0294715D01*
X0149680Y0294687D01*
X0149835Y0294656D01*
X0149990Y0294620D01*
X0150143Y0294581D01*
X0150295Y0294538D01*
X0150446Y0294491D01*
X0150596Y0294440D01*
X0150745Y0294385D01*
X0150892Y0294327D01*
X0151038Y0294265D01*
X0151182Y0294200D01*
X0151324Y0294130D01*
X0151465Y0294058D01*
X0151604Y0293981D01*
X0151740Y0293902D01*
X0151875Y0293818D01*
X0152008Y0293732D01*
X0152138Y0293642D01*
X0152266Y0293549D01*
X0152392Y0293453D01*
X0152515Y0293353D01*
X0152636Y0293251D01*
X0152754Y0293146D01*
X0152869Y0293037D01*
X0152982Y0292926D01*
X0153092Y0292812D01*
X0153199Y0292695D01*
X0153303Y0292576D01*
X0153404Y0292454D01*
X0153501Y0292329D01*
X0153596Y0292202D01*
X0153687Y0292073D01*
X0153776Y0291942D01*
X0153860Y0291808D01*
X0153942Y0291672D01*
X0154020Y0291535D01*
X0154094Y0291395D01*
X0154165Y0291253D01*
X0154233Y0291110D01*
X0154297Y0290965D01*
X0154357Y0290819D01*
X0154413Y0290671D01*
X0154466Y0290522D01*
X0154515Y0290371D01*
X0154560Y0290219D01*
X0154601Y0290066D01*
X0154639Y0289913D01*
X0154672Y0289758D01*
X0154702Y0289602D01*
X0154728Y0289446D01*
X0154749Y0289289D01*
X0154767Y0289132D01*
X0154781Y0288974D01*
X0154791Y0288816D01*
X0154797Y0288658D01*
X0154799Y0288500D01*
X0154797Y0288342D01*
X0154791Y0288184D01*
X0154781Y0288026D01*
X0154767Y0287868D01*
X0154749Y0287711D01*
X0154728Y0287554D01*
X0154702Y0287398D01*
X0154672Y0287242D01*
X0154639Y0287087D01*
X0154601Y0286934D01*
X0154560Y0286781D01*
X0154515Y0286629D01*
X0154466Y0286478D01*
X0154413Y0286329D01*
X0154357Y0286181D01*
X0154297Y0286035D01*
X0154233Y0285890D01*
X0154165Y0285747D01*
X0154094Y0285605D01*
X0154020Y0285465D01*
X0153942Y0285328D01*
X0153860Y0285192D01*
X0153776Y0285058D01*
X0153687Y0284927D01*
X0153596Y0284798D01*
X0153501Y0284671D01*
X0153404Y0284546D01*
X0153303Y0284424D01*
X0153199Y0284305D01*
X0153092Y0284188D01*
X0152982Y0284074D01*
X0152869Y0283963D01*
X0152754Y0283854D01*
X0152636Y0283749D01*
X0152515Y0283647D01*
X0152392Y0283547D01*
X0152266Y0283451D01*
X0152138Y0283358D01*
X0152008Y0283268D01*
X0151875Y0283182D01*
X0151740Y0283098D01*
X0151604Y0283019D01*
X0151465Y0282942D01*
X0151324Y0282870D01*
X0151182Y0282800D01*
X0151038Y0282735D01*
X0150892Y0282673D01*
X0150745Y0282615D01*
X0150596Y0282560D01*
X0150446Y0282509D01*
X0150295Y0282462D01*
X0150143Y0282419D01*
X0149990Y0282380D01*
X0149835Y0282344D01*
X0149680Y0282313D01*
X0149524Y0282285D01*
X0149368Y0282261D01*
X0149211Y0282241D01*
X0149053Y0282225D01*
X0148896Y0282213D01*
X0148737Y0282205D01*
X0148579Y0282201D01*
X0148421Y0282201D01*
X0148263Y0282205D01*
X0148104Y0282213D01*
X0147947Y0282225D01*
X0147789Y0282241D01*
X0147632Y0282261D01*
X0147476Y0282285D01*
X0147320Y0282313D01*
X0147165Y0282344D01*
X0147010Y0282380D01*
X0146857Y0282419D01*
X0146705Y0282462D01*
X0146554Y0282509D01*
X0146404Y0282560D01*
X0146255Y0282615D01*
X0146108Y0282673D01*
X0145962Y0282735D01*
X0145818Y0282800D01*
X0145676Y0282870D01*
X0145535Y0282942D01*
X0145396Y0283019D01*
X0145260Y0283098D01*
X0145125Y0283182D01*
X0144992Y0283268D01*
X0144862Y0283358D01*
X0144734Y0283451D01*
X0144608Y0283547D01*
X0144485Y0283647D01*
X0144364Y0283749D01*
X0144246Y0283854D01*
X0144131Y0283963D01*
X0144018Y0284074D01*
X0143908Y0284188D01*
X0143801Y0284305D01*
X0143697Y0284424D01*
X0143596Y0284546D01*
X0143499Y0284671D01*
X0143404Y0284798D01*
X0143313Y0284927D01*
X0143224Y0285058D01*
X0143140Y0285192D01*
X0143058Y0285328D01*
X0142980Y0285465D01*
X0142906Y0285605D01*
X0142835Y0285747D01*
X0142767Y0285890D01*
X0142703Y0286035D01*
X0142643Y0286181D01*
X0142587Y0286329D01*
X0142534Y0286478D01*
X0142485Y0286629D01*
X0142440Y0286781D01*
X0142399Y0286934D01*
X0142361Y0287087D01*
X0142328Y0287242D01*
X0142298Y0287398D01*
X0142272Y0287554D01*
X0142251Y0287711D01*
X0142233Y0287868D01*
X0142219Y0288026D01*
X0142209Y0288184D01*
X0142203Y0288342D01*
X0142201Y0288500D01*
X0362201Y0078500D02*
X0362203Y0078658D01*
X0362209Y0078816D01*
X0362219Y0078974D01*
X0362233Y0079132D01*
X0362251Y0079289D01*
X0362272Y0079446D01*
X0362298Y0079602D01*
X0362328Y0079758D01*
X0362361Y0079913D01*
X0362399Y0080066D01*
X0362440Y0080219D01*
X0362485Y0080371D01*
X0362534Y0080522D01*
X0362587Y0080671D01*
X0362643Y0080819D01*
X0362703Y0080965D01*
X0362767Y0081110D01*
X0362835Y0081253D01*
X0362906Y0081395D01*
X0362980Y0081535D01*
X0363058Y0081672D01*
X0363140Y0081808D01*
X0363224Y0081942D01*
X0363313Y0082073D01*
X0363404Y0082202D01*
X0363499Y0082329D01*
X0363596Y0082454D01*
X0363697Y0082576D01*
X0363801Y0082695D01*
X0363908Y0082812D01*
X0364018Y0082926D01*
X0364131Y0083037D01*
X0364246Y0083146D01*
X0364364Y0083251D01*
X0364485Y0083353D01*
X0364608Y0083453D01*
X0364734Y0083549D01*
X0364862Y0083642D01*
X0364992Y0083732D01*
X0365125Y0083818D01*
X0365260Y0083902D01*
X0365396Y0083981D01*
X0365535Y0084058D01*
X0365676Y0084130D01*
X0365818Y0084200D01*
X0365962Y0084265D01*
X0366108Y0084327D01*
X0366255Y0084385D01*
X0366404Y0084440D01*
X0366554Y0084491D01*
X0366705Y0084538D01*
X0366857Y0084581D01*
X0367010Y0084620D01*
X0367165Y0084656D01*
X0367320Y0084687D01*
X0367476Y0084715D01*
X0367632Y0084739D01*
X0367789Y0084759D01*
X0367947Y0084775D01*
X0368104Y0084787D01*
X0368263Y0084795D01*
X0368421Y0084799D01*
X0368579Y0084799D01*
X0368737Y0084795D01*
X0368896Y0084787D01*
X0369053Y0084775D01*
X0369211Y0084759D01*
X0369368Y0084739D01*
X0369524Y0084715D01*
X0369680Y0084687D01*
X0369835Y0084656D01*
X0369990Y0084620D01*
X0370143Y0084581D01*
X0370295Y0084538D01*
X0370446Y0084491D01*
X0370596Y0084440D01*
X0370745Y0084385D01*
X0370892Y0084327D01*
X0371038Y0084265D01*
X0371182Y0084200D01*
X0371324Y0084130D01*
X0371465Y0084058D01*
X0371604Y0083981D01*
X0371740Y0083902D01*
X0371875Y0083818D01*
X0372008Y0083732D01*
X0372138Y0083642D01*
X0372266Y0083549D01*
X0372392Y0083453D01*
X0372515Y0083353D01*
X0372636Y0083251D01*
X0372754Y0083146D01*
X0372869Y0083037D01*
X0372982Y0082926D01*
X0373092Y0082812D01*
X0373199Y0082695D01*
X0373303Y0082576D01*
X0373404Y0082454D01*
X0373501Y0082329D01*
X0373596Y0082202D01*
X0373687Y0082073D01*
X0373776Y0081942D01*
X0373860Y0081808D01*
X0373942Y0081672D01*
X0374020Y0081535D01*
X0374094Y0081395D01*
X0374165Y0081253D01*
X0374233Y0081110D01*
X0374297Y0080965D01*
X0374357Y0080819D01*
X0374413Y0080671D01*
X0374466Y0080522D01*
X0374515Y0080371D01*
X0374560Y0080219D01*
X0374601Y0080066D01*
X0374639Y0079913D01*
X0374672Y0079758D01*
X0374702Y0079602D01*
X0374728Y0079446D01*
X0374749Y0079289D01*
X0374767Y0079132D01*
X0374781Y0078974D01*
X0374791Y0078816D01*
X0374797Y0078658D01*
X0374799Y0078500D01*
X0374797Y0078342D01*
X0374791Y0078184D01*
X0374781Y0078026D01*
X0374767Y0077868D01*
X0374749Y0077711D01*
X0374728Y0077554D01*
X0374702Y0077398D01*
X0374672Y0077242D01*
X0374639Y0077087D01*
X0374601Y0076934D01*
X0374560Y0076781D01*
X0374515Y0076629D01*
X0374466Y0076478D01*
X0374413Y0076329D01*
X0374357Y0076181D01*
X0374297Y0076035D01*
X0374233Y0075890D01*
X0374165Y0075747D01*
X0374094Y0075605D01*
X0374020Y0075465D01*
X0373942Y0075328D01*
X0373860Y0075192D01*
X0373776Y0075058D01*
X0373687Y0074927D01*
X0373596Y0074798D01*
X0373501Y0074671D01*
X0373404Y0074546D01*
X0373303Y0074424D01*
X0373199Y0074305D01*
X0373092Y0074188D01*
X0372982Y0074074D01*
X0372869Y0073963D01*
X0372754Y0073854D01*
X0372636Y0073749D01*
X0372515Y0073647D01*
X0372392Y0073547D01*
X0372266Y0073451D01*
X0372138Y0073358D01*
X0372008Y0073268D01*
X0371875Y0073182D01*
X0371740Y0073098D01*
X0371604Y0073019D01*
X0371465Y0072942D01*
X0371324Y0072870D01*
X0371182Y0072800D01*
X0371038Y0072735D01*
X0370892Y0072673D01*
X0370745Y0072615D01*
X0370596Y0072560D01*
X0370446Y0072509D01*
X0370295Y0072462D01*
X0370143Y0072419D01*
X0369990Y0072380D01*
X0369835Y0072344D01*
X0369680Y0072313D01*
X0369524Y0072285D01*
X0369368Y0072261D01*
X0369211Y0072241D01*
X0369053Y0072225D01*
X0368896Y0072213D01*
X0368737Y0072205D01*
X0368579Y0072201D01*
X0368421Y0072201D01*
X0368263Y0072205D01*
X0368104Y0072213D01*
X0367947Y0072225D01*
X0367789Y0072241D01*
X0367632Y0072261D01*
X0367476Y0072285D01*
X0367320Y0072313D01*
X0367165Y0072344D01*
X0367010Y0072380D01*
X0366857Y0072419D01*
X0366705Y0072462D01*
X0366554Y0072509D01*
X0366404Y0072560D01*
X0366255Y0072615D01*
X0366108Y0072673D01*
X0365962Y0072735D01*
X0365818Y0072800D01*
X0365676Y0072870D01*
X0365535Y0072942D01*
X0365396Y0073019D01*
X0365260Y0073098D01*
X0365125Y0073182D01*
X0364992Y0073268D01*
X0364862Y0073358D01*
X0364734Y0073451D01*
X0364608Y0073547D01*
X0364485Y0073647D01*
X0364364Y0073749D01*
X0364246Y0073854D01*
X0364131Y0073963D01*
X0364018Y0074074D01*
X0363908Y0074188D01*
X0363801Y0074305D01*
X0363697Y0074424D01*
X0363596Y0074546D01*
X0363499Y0074671D01*
X0363404Y0074798D01*
X0363313Y0074927D01*
X0363224Y0075058D01*
X0363140Y0075192D01*
X0363058Y0075328D01*
X0362980Y0075465D01*
X0362906Y0075605D01*
X0362835Y0075747D01*
X0362767Y0075890D01*
X0362703Y0076035D01*
X0362643Y0076181D01*
X0362587Y0076329D01*
X0362534Y0076478D01*
X0362485Y0076629D01*
X0362440Y0076781D01*
X0362399Y0076934D01*
X0362361Y0077087D01*
X0362328Y0077242D01*
X0362298Y0077398D01*
X0362272Y0077554D01*
X0362251Y0077711D01*
X0362233Y0077868D01*
X0362219Y0078026D01*
X0362209Y0078184D01*
X0362203Y0078342D01*
X0362201Y0078500D01*
D11*
X0365508Y0091610D02*
X0365508Y0135705D01*
X0369445Y0135705D01*
X0369445Y0091610D01*
X0365508Y0091610D01*
X0369445Y0091610D02*
X0395035Y0091610D01*
X0395035Y0135705D01*
X0369445Y0135705D01*
X0203500Y0106000D02*
X0203500Y0101000D01*
X0201000Y0098500D01*
X0196000Y0098500D01*
X0193500Y0101000D01*
X0191000Y0098500D01*
X0186000Y0098500D01*
X0183500Y0101000D01*
X0183500Y0106000D01*
X0186000Y0108500D01*
X0191000Y0108500D01*
X0193500Y0106000D01*
X0196000Y0108500D01*
X0201000Y0108500D01*
X0203500Y0106000D01*
X0201000Y0083500D02*
X0196000Y0083500D01*
X0193500Y0081000D01*
X0191000Y0083500D01*
X0186000Y0083500D01*
X0183500Y0081000D01*
X0183500Y0076000D01*
X0186000Y0073500D01*
X0191000Y0073500D01*
X0193500Y0076000D01*
X0196000Y0073500D01*
X0201000Y0073500D01*
X0203500Y0076000D01*
X0203500Y0081000D01*
X0201000Y0083500D01*
X0176000Y0153500D02*
X0171000Y0153500D01*
X0168500Y0156000D01*
X0168500Y0161000D01*
X0171000Y0163500D01*
X0168500Y0166000D01*
X0168500Y0171000D01*
X0171000Y0173500D01*
X0176000Y0173500D01*
X0178500Y0171000D01*
X0178500Y0166000D01*
X0176000Y0163500D01*
X0178500Y0161000D01*
X0178500Y0156000D01*
X0176000Y0153500D01*
D12*
X0166050Y0154201D02*
X0166050Y0154951D01*
X0165299Y0155702D01*
X0161546Y0155702D01*
X0161546Y0154951D02*
X0161546Y0156453D01*
X0162297Y0158054D02*
X0161546Y0158805D01*
X0161546Y0160306D01*
X0162297Y0161056D01*
X0163047Y0161056D01*
X0166050Y0158054D01*
X0166050Y0161056D01*
X0166050Y0154201D02*
X0165299Y0153450D01*
X0138500Y0138500D02*
X0138500Y0208500D01*
X0008500Y0208500D01*
X0008500Y0188500D01*
X0003500Y0188500D01*
X0003500Y0158500D01*
X0008500Y0158500D01*
X0008500Y0188500D01*
X0008500Y0158500D02*
X0008500Y0138500D01*
X0138500Y0138500D01*
X0183450Y0111701D02*
X0184201Y0110950D01*
X0184951Y0110950D01*
X0185702Y0111701D01*
X0185702Y0115454D01*
X0184951Y0115454D02*
X0186453Y0115454D01*
X0188054Y0113953D02*
X0189555Y0115454D01*
X0189555Y0110950D01*
X0188054Y0110950D02*
X0191056Y0110950D01*
X0196343Y0071054D02*
X0197845Y0071054D01*
X0197094Y0071054D02*
X0197094Y0067301D01*
X0196343Y0066550D01*
X0195593Y0066550D01*
X0194842Y0067301D01*
X0199446Y0067301D02*
X0200197Y0066550D01*
X0201698Y0066550D01*
X0202449Y0067301D01*
X0202449Y0068051D01*
X0201698Y0068802D01*
X0200947Y0068802D01*
X0201698Y0068802D02*
X0202449Y0069553D01*
X0202449Y0070303D01*
X0201698Y0071054D01*
X0200197Y0071054D01*
X0199446Y0070303D01*
X0133500Y0098500D02*
X0003500Y0098500D01*
X0003500Y0008500D01*
X0133500Y0008500D01*
X0133500Y0098500D01*
X0278500Y0138500D02*
X0278500Y0048500D01*
X0348500Y0048500D01*
X0348500Y0138500D01*
X0278500Y0138500D01*
X0093500Y0218500D02*
X0003500Y0218500D01*
X0003500Y0308500D01*
X0093500Y0308500D01*
X0093500Y0218500D01*
D13*
X0113696Y0174442D02*
X0118300Y0174442D01*
X0118300Y0172908D02*
X0118300Y0175977D01*
X0115231Y0172908D02*
X0113696Y0174442D01*
X0114463Y0171373D02*
X0113696Y0170606D01*
X0113696Y0169071D01*
X0114463Y0168304D01*
X0115231Y0168304D01*
X0115998Y0169071D01*
X0115998Y0170606D01*
X0116765Y0171373D01*
X0117533Y0171373D01*
X0118300Y0170606D01*
X0118300Y0169071D01*
X0117533Y0168304D01*
X0117533Y0166769D02*
X0113696Y0166769D01*
X0113696Y0163700D02*
X0117533Y0163700D01*
X0118300Y0164467D01*
X0118300Y0166002D01*
X0117533Y0166769D01*
X0119067Y0169839D02*
X0112929Y0169839D01*
X0032165Y0224467D02*
X0031398Y0223700D01*
X0029863Y0223700D01*
X0029096Y0224467D01*
X0027561Y0224467D02*
X0027561Y0225235D01*
X0026794Y0226002D01*
X0025259Y0226002D01*
X0024492Y0226769D01*
X0024492Y0227537D01*
X0025259Y0228304D01*
X0026794Y0228304D01*
X0027561Y0227537D01*
X0029096Y0227537D02*
X0029863Y0228304D01*
X0031398Y0228304D01*
X0032165Y0227537D01*
X0032165Y0226769D01*
X0031398Y0226002D01*
X0032165Y0225235D01*
X0032165Y0224467D01*
X0031398Y0226002D02*
X0030631Y0226002D01*
X0027561Y0224467D02*
X0026794Y0223700D01*
X0025259Y0223700D01*
X0024492Y0224467D01*
X0022957Y0224467D02*
X0022957Y0228304D01*
X0019888Y0228304D02*
X0019888Y0224467D01*
X0020656Y0223700D01*
X0022190Y0223700D01*
X0022957Y0224467D01*
X0026027Y0222933D02*
X0026027Y0229071D01*
X0248700Y0299467D02*
X0249467Y0298700D01*
X0251002Y0298700D01*
X0251769Y0299467D01*
X0251769Y0303304D01*
X0253304Y0302537D02*
X0254071Y0303304D01*
X0255606Y0303304D01*
X0256373Y0302537D01*
X0257908Y0302537D02*
X0258675Y0303304D01*
X0260210Y0303304D01*
X0260977Y0302537D01*
X0260977Y0301769D01*
X0257908Y0298700D01*
X0260977Y0298700D01*
X0256373Y0299467D02*
X0256373Y0300235D01*
X0255606Y0301002D01*
X0254071Y0301002D01*
X0253304Y0301769D01*
X0253304Y0302537D01*
X0254839Y0304071D02*
X0254839Y0297933D01*
X0255606Y0298700D02*
X0256373Y0299467D01*
X0255606Y0298700D02*
X0254071Y0298700D01*
X0253304Y0299467D01*
X0248700Y0299467D02*
X0248700Y0303304D01*
X0091027Y0019071D02*
X0091027Y0012933D01*
X0091794Y0013700D02*
X0092561Y0014467D01*
X0092561Y0015235D01*
X0091794Y0016002D01*
X0090259Y0016002D01*
X0089492Y0016769D01*
X0089492Y0017537D01*
X0090259Y0018304D01*
X0091794Y0018304D01*
X0092561Y0017537D01*
X0094096Y0016002D02*
X0097165Y0016002D01*
X0096398Y0013700D02*
X0096398Y0018304D01*
X0094096Y0016002D01*
X0091794Y0013700D02*
X0090259Y0013700D01*
X0089492Y0014467D01*
X0087957Y0014467D02*
X0087957Y0018304D01*
X0084888Y0018304D02*
X0084888Y0014467D01*
X0085656Y0013700D01*
X0087190Y0013700D01*
X0087957Y0014467D01*
D14*
X0388549Y0126104D02*
X0388549Y0126604D01*
X0388549Y0126354D02*
X0389800Y0126354D01*
X0390050Y0126104D01*
X0390050Y0125854D01*
X0389800Y0125603D01*
X0389299Y0127077D02*
X0389299Y0128078D01*
X0388549Y0127827D02*
X0389299Y0127077D01*
X0388549Y0127827D02*
X0390050Y0127827D01*
M02*
