G75*
%MOIN*%
%OFA0B0*%
%FSLAX25Y25*%
%IPPOS*%
%LPD*%
%AMOC8*
5,1,8,0,0,1.08239X$1,22.5*
%
%ADD10C,0.13398*%
%ADD11C,0.08200*%
%ADD12C,0.09400*%
%ADD13R,0.09400X0.09400*%
%ADD14R,0.08800X0.08800*%
%ADD15C,0.08800*%
D10*
X0048500Y0108500D03*
X0148500Y0288500D03*
X0368500Y0078500D03*
D11*
X0198500Y0078500D03*
X0188500Y0078500D03*
X0188500Y0103500D03*
X0198500Y0103500D03*
X0173500Y0158500D03*
X0173500Y0168500D03*
D12*
X0123500Y0018500D03*
X0123500Y0028500D03*
X0123500Y0038500D03*
X0123500Y0048500D03*
X0123500Y0058500D03*
X0123500Y0068500D03*
X0123500Y0078500D03*
X0123500Y0088500D03*
X0093500Y0128500D03*
X0093500Y0143500D03*
X0103500Y0143500D03*
X0113500Y0143500D03*
X0123500Y0143500D03*
X0133500Y0143500D03*
X0083500Y0143500D03*
X0073500Y0143500D03*
X0063500Y0143500D03*
X0053500Y0143500D03*
X0043500Y0143500D03*
X0033500Y0143500D03*
X0073500Y0128500D03*
X0073500Y0203500D03*
X0083500Y0203500D03*
X0093500Y0203500D03*
X0103500Y0203500D03*
X0113500Y0203500D03*
X0123500Y0203500D03*
X0133500Y0203500D03*
X0088500Y0233500D03*
X0088500Y0243500D03*
X0088500Y0253500D03*
X0103500Y0243500D03*
X0128500Y0243500D03*
X0088500Y0263500D03*
X0088500Y0273500D03*
X0088500Y0283500D03*
X0088500Y0293500D03*
X0063500Y0203500D03*
X0053500Y0203500D03*
X0043500Y0203500D03*
X0033500Y0203500D03*
X0023500Y0203500D03*
X0228500Y0203500D03*
X0228500Y0193500D03*
X0228500Y0183500D03*
X0228500Y0173500D03*
X0228500Y0163500D03*
X0228500Y0153500D03*
X0288500Y0131500D03*
X0340500Y0131500D03*
X0340500Y0058500D03*
X0288500Y0058500D03*
X0228500Y0213500D03*
X0228500Y0223500D03*
X0228500Y0233500D03*
X0228500Y0243500D03*
X0228500Y0253500D03*
X0228500Y0263500D03*
X0228500Y0273500D03*
X0228500Y0283500D03*
X0228500Y0293500D03*
X0228500Y0303500D03*
D13*
X0023500Y0143500D03*
D14*
X0378500Y0123500D03*
D15*
X0378500Y0103815D03*
M02*
